Coordinates
version=1
nRows=5
nColumns=63
inDegrees=yes

Units are S.I. units (second, meters, Newtons, ...)
If the header above contains a line with 'inDegrees', this indicates whether rotational values are in degrees (yes) or radians (no).

endheader
time	pelvis_tilt	pelvis_list	pelvis_rotation	pelvis_tx	pelvis_ty	pelvis_tz	hip_flexion_r	hip_adduction_r	hip_rotation_r	knee_angle_r	knee_angle_r_beta	ankle_angle_r	subtalar_angle_r	mtp_angle_r	hip_flexion_l	hip_adduction_l	hip_rotation_l	knee_angle_l	knee_angle_l_beta	ankle_angle_l	subtalar_angle_l	mtp_angle_l	L5_S1_Flex_Ext	L5_S1_Lat_Bending	L5_S1_axial_rotation	L4_L5_Flex_Ext	L4_L5_Lat_Bending	L4_L5_axial_rotation	L3_L4_Flex_Ext	L3_L4_Lat_Bending	L3_L4_axial_rotation	L2_L3_Flex_Ext	L2_L3_Lat_Bending	L2_L3_axial_rotation	L1_L2_Flex_Ext	L1_L2_Lat_Bending	L1_L2_axial_rotation	L1_T12_Flex_Ext	L1_T12_Lat_Bending	L1_T12_axial_rotation	Abs_r3	Abs_r2	Abs_r1	Abs_t1	Abs_t2	neck_flexion	neck_bending	neck_rotation	arm_flex_r	arm_add_r	arm_rot_r	elbow_flex_r	pro_sup_r	wrist_flex_r	wrist_dev_r	arm_flex_l	arm_add_l	arm_rot_l	elbow_flex_l	pro_sup_l	wrist_flex_l	wrist_dev_l
      3.35000000	    -38.43759652	     10.77839344	    -73.80919130	     -0.10650308	      0.95695874	     -0.96878946	     31.26728437	    -21.96429458	    -26.24571507	     34.47777638	      0.60175072	      1.56684919	     16.93167725	      0.00000000	     43.23961404	    -29.14051849	     37.24692321	     50.63264508	      0.88370637	     18.24225159	    -18.72325318	      0.00000000	     -0.01857560	     -1.17423930	     -0.77820499	     -0.03449674	     -1.56173827	     -0.82684280	     -0.03051785	     -2.85504543	     -0.82684280	     -0.02123005	     -2.85504543	     -0.68092937	     -0.01724930	     -2.39450878	     -0.63229155	     -0.01061410	     -1.81889667	     -0.58365374	     -0.13268364	    -13.28322980	     -4.32814269	      0.00000000	      0.00000000	    -12.74189598	     12.38954943	     -1.37079096	    -23.88881412	    -47.86600080	    -89.40765706	    110.21704054	     89.99559364	      0.00000000	      0.00000000	      5.82281066	    -61.92096530	      3.20039907	     33.66355591	     89.99559364	      0.00000000	      0.00000000
      3.36666667	    -38.44052098	     11.06158646	    -72.00919723	     -0.10358987	      0.95783582	     -0.96036706	     31.21858054	    -22.23841506	    -28.02809129	     35.36728856	      0.61727563	      1.30985511	     18.18025362	      0.00000000	     43.17002142	    -28.37418962	     38.16752307	     49.29008513	      0.86027427	     18.36415013	    -18.58989872	      0.00000000	     -0.01877595	     -1.18083765	     -0.98303615	     -0.03486882	     -1.57051408	     -1.04447590	     -0.03084701	     -2.87108866	     -1.04447590	     -0.02145903	     -2.87108866	     -0.86015663	     -0.01743535	     -2.40796414	     -0.79871687	     -0.01072858	     -1.82911752	     -0.73727711	     -0.13411474	    -13.35787168	     -5.46735213	      0.00000000	      0.00000000	    -14.30205227	     13.44381368	     -2.48639795	    -23.90891056	    -47.51696252	    -89.36002341	    111.99397531	     89.99559364	      0.00000000	      0.00000000	      5.80195186	    -61.66704078	      1.94353293	     33.75127148	     89.99559364	      0.00000000	      0.00000000
      3.38333333	    -38.71994455	     11.48974603	    -71.16655984	     -0.10231557	      0.95854231	     -0.95496071	     32.34016077	    -21.35694377	    -27.97733495	     36.31812905	      0.63387093	      1.03883450	     18.35980027	      0.00000000	     43.29942548	    -28.39796050	     38.56761458	     48.19816384	      0.84121665	     18.61181308	    -18.33828887	      0.00000000	     -0.01983561	     -1.12696840	     -1.10296859	     -0.03683671	     -1.49886798	     -1.17190413	     -0.03258792	     -2.74011098	     -1.17190413	     -0.02267012	     -2.74011098	     -0.96509752	     -0.01841935	     -2.29811397	     -0.89616198	     -0.01133407	     -1.74567406	     -0.82722644	     -0.14168378	    -12.74849198	     -6.13438041	      0.00000000	      0.00000000	    -14.29107391	     13.46137098	     -2.46465382	    -23.17639646	    -47.84581957	    -89.09730566	    113.59655500	     89.99559364	      0.00000000	      0.00000000	      5.50891154	    -61.48948084	      1.59897875	     34.23515393	     89.99559364	      0.00000000	      0.00000000
      3.40000000	    -39.36223208	     12.07497946	    -69.87625326	     -0.10137629	      0.95813147	     -0.95279254	     33.76331394	    -20.24071613	    -28.78499364	     37.16335682	      0.64862294	      1.32144397	     18.53513634	      0.00000000	     44.54238368	    -28.36700861	     39.16345149	     47.44560383	      0.82808200	     18.79941662	    -17.69458836	      0.00000000	     -0.01530630	     -1.01801510	     -1.39324235	     -0.02842534	     -1.35396008	     -1.48031999	     -0.02514673	     -2.47520191	     -1.48031999	     -0.01749357	     -2.47520191	     -1.21908705	     -0.01421343	     -2.07593639	     -1.13200941	     -0.00874602	     -1.57690539	     -1.04493176	     -0.10933140	    -11.51599039	     -7.74879595	      0.00000000	      0.00000000	    -14.14982848	     12.66996965	     -1.18850206	    -21.40006719	    -48.89439750	    -88.03155007	    114.79429731	     89.99559364	      0.00000000	      0.00000000	      3.07344718	    -60.32595320	     -4.88229679	     36.38150474	     89.99559364	      0.00000000	      0.00000000
      3.41666667	    -39.68441099	     12.71704157	    -68.84346487	     -0.10136980	      0.95822314	     -0.95246463	     35.60686344	    -18.94522917	    -28.90778722	     37.86518976	      0.66087223	      2.67920173	     18.54130908	      0.00000000	     45.54597387	    -28.16891713	     39.36328803	     46.60487035	      0.81340844	     18.68248394	    -17.27403241	      0.00000000	     -0.01588392	     -0.95033737	     -1.54545082	     -0.02949803	     -1.26394870	     -1.64204150	     -0.02609570	     -2.31065028	     -1.64204150	     -0.01815374	     -2.31065028	     -1.35226947	     -0.01474981	     -1.93792797	     -1.25567879	     -0.00907607	     -1.47207259	     -1.15908812	     -0.11345728	    -10.75040641	     -8.59533383	      0.00000000	      0.00000000	    -14.06588297	     12.63218819	     -1.17393608	    -20.21292027	    -49.50150803	    -87.20785258	    115.93371319	     89.99559364	      0.00000000	      0.00000000	      4.14885093	    -60.02102322	     -4.97251619	     37.58161969	     89.99559364	      0.00000000	      0.00000000
